<svg xmlns="http://www.w3.org/2000/svg" width="140" height="108" viewBox="0 0 140 108" fill="none">
  <path fill-rule="evenodd" clip-rule="evenodd" d="M81.7855 83.3485C100.897 79.0889 115.165 62.2812 115.165 42.1957C115.165 18.8917 95.9577 0 72.2637 0C48.5697 0 29.362 18.8917 29.362 42.1957C29.362 62.2812 43.6304 79.0889 62.7419 83.3485L72.0301 107.84C72.1108 108.053 72.4166 108.053 72.4973 107.84L81.7855 83.3485ZM72.2637 75.66C91.0547 75.66 106.288 60.6775 106.288 42.1957C106.288 23.7139 91.0547 8.73139 72.2637 8.73139C53.4726 8.73139 38.2395 23.7139 38.2395 42.1957C38.2395 60.6775 53.4726 75.66 72.2637 75.66Z" fill="white"/>
  <path d="M116.714 80.8642L120.771 81.9332L140 11.3493C138.7 11.026 137.39 10.8004 136.063 10.6254C132.546 10.1614 126.445 13.7276 124.483 20.9277L120.073 37.1158C118.83 41.678 121.318 46.3848 125.604 48.2335L116.714 80.8642Z" fill="white"/>
  <path fill-rule="evenodd" clip-rule="evenodd" d="M18.6717 30.5399C18.7992 29.433 18.7251 28.4072 18.6267 27.6753C18.5768 27.3044 18.4721 26.7758 18.4721 26.7758L14.1884 11.0519L10.469 12.0321C11.8744 17.1908 14.6893 27.552 14.6893 27.552C14.6893 27.552 14.7602 27.9091 14.7957 28.1736C14.8682 28.7124 14.9129 29.4097 14.832 30.1121C14.762 30.7196 14.6066 31.2589 14.3551 31.696L9.06841 12.2904C8.16697 12.5279 7.26557 12.7654 6.36416 13.003C5.91345 13.1218 5.46275 13.2406 5.01204 13.3594L10.2805 32.698C9.87211 32.4432 9.49151 32.0713 9.14542 31.6107C8.71828 31.0422 8.40253 30.4164 8.19134 29.9141C8.08769 29.6676 8.01388 29.462 7.96754 29.3235C7.26332 26.7385 6.55564 24.1481 5.84826 21.5587C5.1415 18.9716 4.43504 16.3856 3.73264 13.8074L0.0131604 14.7876L3.22558 26.5792C3.63844 28.0562 4.49539 31.0814 4.62031 31.3665C4.90716 32.0488 5.36449 32.9736 6.03758 33.8695C6.70735 34.7609 7.65087 35.7035 8.93316 36.2994C9.68928 36.6508 10.5231 36.8624 11.4236 36.8939L23.7143 82.0086L27.7707 80.9396L15.4852 35.844C16.2767 35.3683 16.9109 34.7619 17.3994 34.0682C18.2069 32.9215 18.5449 31.6413 18.6717 30.5399Z" fill="white"/>
  <path fill-rule="evenodd" clip-rule="evenodd" d="M54.2839 39.1726C54.7595 38.5107 55.039 37.7027 55.039 36.8305C55.039 34.5868 53.1897 32.7679 50.9085 32.7679C48.6272 32.7679 46.7779 34.5868 46.7779 36.8305C46.7779 39.0742 48.6272 40.8931 50.9085 40.8931C51.1902 40.8931 51.4653 40.8653 51.7311 40.8125C56.9559 46.1878 64.2781 49.5357 72.3893 49.5357C80.4851 49.5357 87.7952 46.2003 93.0179 40.8428C93.2302 40.8759 93.4478 40.8931 93.6695 40.8931C95.9508 40.8931 97.8001 39.0742 97.8001 36.8305C97.8001 34.5868 95.9508 32.7679 93.6695 32.7679C91.3883 32.7679 89.539 34.5868 89.539 36.8305C89.539 37.7532 89.8518 38.6041 90.3787 39.2861C85.7308 43.8115 79.3832 46.5932 72.3893 46.5932C65.3371 46.5932 58.9419 43.7649 54.2839 39.1726Z" fill="white"/>
</svg>
