<svg xmlns="http://www.w3.org/2000/svg" viewBox="0 0 594.23 84.58"><g id="Livello_2" data-name="Livello 2"><g id="Layer_1" data-name="Layer 1"><path d="M0,1.4H19.33V66.47H50.82V83.18H0Z"/><path d="M117.52,0c25,0,44.16,18.46,44.16,42.29s-19.16,42.29-44.16,42.29S73.36,66.12,73.36,42.29,92.52,0,117.52,0Zm0,67.76c13.9,0,24.65-11,24.65-25.47s-10.75-25.47-24.65-25.47-24.65,11-24.65,25.47S103.62,67.76,117.52,67.76Z"/><path d="M332.44,1.4h20.27l27.63,52.51V1.4h18V83.18H378L350.37,30.67V83.18H332.44Z"/><path d="M476.24,1.4l28.39,81.78H484.42l-5.31-17.06h-27L446.8,83.18H426.59L455,1.4ZM474.67,51l-9.06-29.26L456.56,51Z"/><path d="M563.21,1.4c17.12,0,28.86,10.75,28.86,26.64,0,11.56-6.13,20.33-16.24,24.06l18.4,31.08h-21L557,54.67h-4.85V83.18H533V1.4Zm-11.1,15.42V40.13h9.12c7.36,0,11.68-4.73,11.68-11.62s-4.32-11.69-11.68-11.69Z"/></g></g></svg>