<?xml version="1.0" encoding="utf-8"?>
<!-- Generator: Adobe Adobe Illustrator 24.2.0, SVG Export Plug-In . SVG Version: 6.00 Build 0)  -->
<svg version="1.1" id="Layer_1" xmlns="http://www.w3.org/2000/svg" xmlns:xlink="http://www.w3.org/1999/xlink" x="0px" y="0px"
	 width="1080px" height="1080px" viewBox="0 0 1080 1080" style="enable-background:new 0 0 1080 1080;" xml:space="preserve">
<style type="text/css">
	.st0{fill:none;stroke:#000000;stroke-width:5;stroke-linecap:round;stroke-linejoin:round;stroke-miterlimit:10;}
	.st1{fill:#FFFFFF;}
	.st2{fill:none;stroke:#FFFFFF;stroke-width:5;stroke-linecap:round;stroke-miterlimit:10;stroke-dasharray:0,30,0,30,0,30;}
	.st3{fill:none;stroke:#000000;stroke-width:5;stroke-linecap:round;stroke-miterlimit:10;}
	.st4{fill:none;stroke:#000000;stroke-width:3;stroke-linecap:round;stroke-miterlimit:10;stroke-dasharray:0,6,0,6,0,6;}
	.st5{fill:none;stroke:#000000;stroke-width:15;stroke-miterlimit:10;}
	.st6{fill:url(#SVGID_1_);}
	.st7{fill:none;stroke:#000000;stroke-width:10;stroke-miterlimit:10;stroke-dasharray:28,12,28,12,28,12;}
	.st8{fill:none;stroke:#000000;stroke-width:10;stroke-linecap:round;stroke-miterlimit:10;stroke-dasharray:0,17,0,17,0,17;}
	.st9{opacity:0.7294;fill:url(#SVGID_2_);}
	.st10{fill:none;stroke:#000000;stroke-width:20;stroke-miterlimit:10;}
	.st11{opacity:0.7294;fill:url(#SVGID_3_);}
	.st12{opacity:0.7294;fill:url(#SVGID_4_);}
	.st13{fill:url(#SVGID_5_);}
	.st14{fill:url(#SVGID_6_);}
	.st15{fill:url(#SVGID_7_);}
	.st16{fill:url(#SVGID_8_);}
	.st17{fill:#FF0000;}
	.st18{fill:url(#SVGID_9_);}
	.st19{fill:url(#SVGID_10_);}
	.st20{fill:url(#SVGID_13_);}
	.st21{fill:url(#SVGID_14_);}
	.st22{fill:url(#SVGID_15_);}
	.st23{fill:url(#SVGID_16_);}
	.st24{fill:url(#SVGID_19_);}
	.st25{fill:url(#SVGID_20_);}
	.st26{fill:url(#SVGID_21_);}
	.st27{fill:url(#SVGID_22_);}
	.st28{fill:url(#SVGID_23_);}
	.st29{fill:url(#SVGID_26_);}
	.st30{fill:url(#SVGID_27_);}
	.st31{fill:url(#SVGID_28_);}
	.st32{fill:url(#SVGID_29_);}
	.st33{fill:url(#SVGID_30_);}
	.st34{fill:url(#SVGID_33_);}
	.st35{fill:url(#SVGID_34_);}
	.st36{fill:url(#SVGID_35_);}
	.st37{fill:url(#SVGID_36_);}
	.st38{fill:url(#SVGID_37_);}
	.st39{fill:url(#SVGID_40_);}
	.st40{fill:url(#SVGID_41_);}
	.st41{fill:url(#SVGID_42_);}
	.st42{fill:url(#SVGID_43_);}
	.st43{fill:url(#SVGID_44_);}
	.st44{fill:url(#SVGID_45_);}
	.st45{fill:url(#SVGID_48_);}
	.st46{fill:url(#SVGID_51_);}
	.st47{fill:#E31717;}
	.st48{fill:url(#SVGID_52_);}
	.st49{fill:url(#SVGID_55_);}
	.st50{fill:#3F4447;}
	.st51{fill:url(#SVGID_58_);}
	.st52{fill:#CA006B;}
	.st53{fill:url(#SVGID_61_);}
	.st54{fill:#008E89;}
	.st55{fill:url(#SVGID_64_);}
	.st56{fill:url(#SVGID_65_);}
	.st57{fill:#FAFAFA;}
	.st58{fill:url(#SVGID_66_);}
	.st59{filter:url(#Adobe_OpacityMaskFilter);}
	.st60{mask:url(#SVGID_67_);}
	.st61{fill:url(#SVGID_70_);}
	.st62{filter:url(#Adobe_OpacityMaskFilter_1_);}
	.st63{mask:url(#SVGID_71_);}
	.st64{fill:url(#SVGID_74_);}
	.st65{fill:url(#SVGID_77_);}
	.st66{fill:url(#SVGID_80_);}
	.st67{fill:url(#SVGID_83_);}
	.st68{fill:url(#SVGID_86_);}
	.st69{fill:url(#SVGID_87_);}
	.st70{fill:url(#SVGID_90_);}
	.st71{fill:url(#SVGID_91_);}
	.st72{filter:url(#Adobe_OpacityMaskFilter_2_);}
	.st73{mask:url(#SVGID_92_);}
	.st74{fill:url(#SVGID_95_);}
	.st75{filter:url(#Adobe_OpacityMaskFilter_3_);}
	.st76{mask:url(#SVGID_96_);}
	.st77{fill:url(#SVGID_99_);}
	.st78{fill:url(#SVGID_100_);}
	.st79{fill:url(#SVGID_101_);}
	.st80{fill:url(#SVGID_102_);}
	.st81{fill:url(#SVGID_103_);}
	.st82{fill:url(#SVGID_104_);}
	.st83{fill:url(#SVGID_105_);}
	.st84{fill:url(#SVGID_106_);}
	.st85{fill:url(#SVGID_107_);}
	.st86{fill:url(#SVGID_108_);}
	.st87{fill:url(#SVGID_111_);}
	.st88{fill:url(#SVGID_112_);}
	.st89{fill:url(#SVGID_113_);}
	.st90{fill:url(#SVGID_114_);}
	.st91{fill:url(#SVGID_115_);}
	.st92{fill:url(#SVGID_116_);}
	.st93{fill:url(#SVGID_117_);}
	.st94{filter:url(#Adobe_OpacityMaskFilter_4_);}
	.st95{mask:url(#SVGID_118_);}
	.st96{filter:url(#Adobe_OpacityMaskFilter_5_);}
	.st97{mask:url(#SVGID_121_);}
	.st98{fill:url(#SVGID_124_);}
	.st99{fill:url(#SVGID_125_);}
	.st100{fill:url(#SVGID_126_);}
	.st101{fill:url(#SVGID_127_);}
	.st102{fill:url(#SVGID_128_);}
	.st103{fill:url(#SVGID_129_);}
	.st104{display:none;}
	.st105{display:inline;fill:url(#SVGID_130_);}
	.st106{display:inline;fill:#FAFAFA;}
	.st107{fill:#12208A;}
	.st108{fill:#165B9D;}
	.st109{fill:#4F9ECD;}
	.st110{fill:#DCE1EE;}
	.st111{fill:#E6CF1F;}
	.st112{filter:url(#Adobe_OpacityMaskFilter_6_);}
	.st113{mask:url(#SVGID_131_);}
	.st114{fill:url(#SVGID_134_);}
	.st115{filter:url(#Adobe_OpacityMaskFilter_7_);}
	.st116{mask:url(#SVGID_135_);}
	.st117{fill:url(#SVGID_138_);}
	.st118{fill:url(#SVGID_141_);}
	.st119{fill:url(#SVGID_142_);}
	.st120{fill:url(#SVGID_143_);}
	.st121{fill:url(#SVGID_144_);}
	.st122{fill:url(#SVGID_145_);}
	.st123{fill:url(#SVGID_146_);}
	.st124{fill:url(#SVGID_147_);}
	.st125{fill:url(#SVGID_148_);}
	.st126{fill:url(#SVGID_149_);}
	.st127{fill:url(#SVGID_150_);}
	.st128{fill:url(#SVGID_151_);}
	.st129{fill:url(#SVGID_152_);}
	.st130{fill:url(#SVGID_153_);}
	.st131{fill:url(#SVGID_154_);}
	.st132{fill:url(#SVGID_155_);}
	.st133{fill:url(#SVGID_156_);}
	.st134{fill:url(#SVGID_161_);}
	.st135{fill:url(#SVGID_162_);}
</style>
<g>
	<linearGradient id="SVGID_1_" gradientUnits="userSpaceOnUse" x1="207.4034" y1="902.355" x2="939.3025" y2="99.0511">
		<stop  offset="0" style="stop-color:#FAFAFA"/>
		<stop  offset="1" style="stop-color:#FFFFFF;stop-opacity:0"/>
	</linearGradient>
	<path class="st6" d="M993.36,230.93c-8.47-12.78-17.65-25.17-27.32-37.12c-24.16-29.98-51.54-57.05-81.71-80.89
		c-12.08-9.61-24.66-18.66-37.57-27C766.12,33.04,669.74,2.43,566.4,2.43c-4.81,0-9.61,0.06-14.29,0.19
		c-4.8-0.13-9.67-0.19-14.54-0.19C240.7,2.43,0,243.14,0,539.94c0,296.93,240.7,537.63,537.57,537.63
		c267.9,0,490.01-195.99,530.8-452.44c7.72-35.48,11.64-72.03,11.64-109.09C1080,410.6,1048.06,312.51,993.36,230.93z
		 M961.35,758.31c-20.05,32.63-44.21,62.8-72.16,89.93c-8.79,8.6-17.96,16.82-27.38,24.73c-6.77,5.56-13.66,10.94-20.68,16.13
		c-79.24,58.25-175.82,90.19-274.73,90.19c-255.37,0-463.19-207.88-463.19-463.26c0-99.92,31.75-195.74,90.25-274.79
		c11.38-15.43,23.78-30.23,37.19-44.33l3.67-3.54l20.93-20.62c21.38-19.35,44.33-36.49,68.49-51.42
		c72.54-44.59,156.34-68.49,242.66-68.49c88.92,0,172.15,25.17,242.79,68.94c11.19,6.83,22.07,14.17,32.57,21.95
		c35.54,26.37,67.16,57.74,93.85,92.97c7.97,10.5,15.43,21.25,22.39,32.32c45.34,71.46,71.65,156.34,71.65,247.03
		C1029.66,602.86,1005.56,686.41,961.35,758.31z"/>
	<path class="st57" d="M1006.79,179.07c0,18.78-4.87,36.48-13.4,51.84c-8.47,15.43-20.67,28.51-35.41,38.06
		c-16.75,10.88-36.8,17.26-58.29,17.26c-16.12,0-31.36-3.54-45.08-9.93c-22.7-10.56-41.16-28.83-51.84-51.47
		c-6.58-13.91-10.24-29.4-10.24-45.77c0-21.05,6.07-40.72,16.69-57.28c9.29-14.86,22.26-27.19,37.56-35.85
		c15.62-8.91,33.7-13.97,52.92-13.97C958.8,71.97,1006.79,119.89,1006.79,179.07z"/>
	<circle class="st57" cx="493.81" cy="604.38" r="246.73"/>
</g>
</svg>
