<svg width="32" height="32" viewBox="0 0 32 32" fill="none" xmlns="http://www.w3.org/2000/svg">
<rect width="32" height="32" rx="16" fill="#EE2C28"/>
<path d="M14.628 23V12.68C14.5107 12.744 14.3773 12.808 14.228 12.872C14.0787 12.936 13.9187 13.0053 13.748 13.08C13.588 13.144 13.428 13.208 13.268 13.272C13.1187 13.336 12.98 13.4 12.852 13.464V11.48C12.9693 11.416 13.1347 11.3307 13.348 11.224C13.5613 11.1067 13.7907 10.9787 14.036 10.84C14.2813 10.7013 14.5107 10.5627 14.724 10.424C14.9373 10.2747 15.0973 10.1467 15.204 10.04H17.3V23H14.628Z" fill="white"/>
</svg>
